{"title":"Hero {2015} DVDScr Rip XviD AC3 {Team DUS} - jnmjy","uid":12414536,"size":1559539310,"categoryP":"video","categoryS":"movies","magnet":"?xt=urn:btih:2dde968cd33ed6ff54fc21889c723488e8f29078&amp;dn=Hero+%7B2015%7D+DVDScr+Rip+XviD+AC3+%7BTeam+DUS%7D+-+jnmjy&amp;tr=udp%3A%2F%2Ftracker.openbittorrent.com%3A80&amp;tr=udp%3A%2F%2Fopen.demonii.com%3A1337&amp;tr=udp%3A%2F%2Ftracker.coppersurfer.tk%3A6969&amp;tr=udp%3A%2F%2Fexodus.desync.com%3A6969","seeders":26,"leechers":6,"uploader":"SS132203","files":2,"time":1442207625,"description":"Hero {2015} 1/3 DesiScr Rip XviD AC3 {Team DUS} - jnmjy\n &lt;a href=&quot;\nhttp://imgsparrow.co/image/899&quot; rel=&quot;nofollow&quot; target=&quot;_NEW&quot;&gt;\nhttp://imgsparrow.co/image/899&lt;/a&gt;\n &lt;a href=&quot;\nhttp://imgsparrow.co/image/8ae&quot; rel=&quot;nofollow&quot; target=&quot;_NEW&quot;&gt;\nhttp://imgsparrow.co/image/8ae&lt;/a&gt;\n &lt;a href=&quot;\nhttp://imgsparrow.co/image/9b&quot; rel=&quot;nofollow&quot; target=&quot;_NEW&quot;&gt;\nhttp://imgsparrow.co/image/9b&lt;/a&gt;\n\nInfo : - \n\nThank Team DUS Not Me!\n\nYear.............: 2015\nSource: IcTv\nRipper...........: jnmjy\n\nGeneral\nFormat                                   : AVI\nFormat/Info                              : Audio Video Interleave\nFile size                                : 1.45 GiB\nDuration                                 : 2h 8mn\nOverall bit rate                         : 1 619 Kbps\n\nVideo\nID                                       : 0\nFormat                                   : MPEG-4 Visual\nFormat profile                           : Advanced Simple@L5\nFormat settings, BVOP                    : 2\nFormat settings, QPel                    : No\nFormat settings, GMC                     : No warppoints\nFormat settings, Matrix                  : Default (H.263)\nCodec ID                                 : XVID\nCodec ID/Hint                            : XviD\nDuration                                 : 2h 8mn\nBit rate                                 : 1 419 Kbps\nWidth                                    : 688 pixels\nHeight                                   : 288 pixels\nDisplay aspect ratio                     : 2.40:1\nFrame rate                               : 23.976 fps\nColor space                              : YUV\nChroma subsampling                       : 4:2:0\nBit depth                                : 8 bits\nScan type                                : Progressive\nCompression mode                         : Lossy\nBits/(Pixel*Frame)                       : 0.299\nStream size                              : 1.27 GiB (88%)\nWriting library                          : XviD 1.2.1 (UTC 2008-12-04)\n\nAudio\nID                                       : 1\nFormat                                   : AC-3\nFormat/Info                              : Audio Coding 3\nMode extension                           : CM (complete main)\nFormat settings, Endianness              : Big\nCodec ID                                 : 2000\nDuration                                 : 2h 8mn\nBit rate mode                            : Constant\nBit rate                                 : 192 Kbps\nChannel(s)                               : 2 channels\nChannel positions                        : Front: L R\nSampling rate                            : 48.0 KHz\nCompression mode                         : Lossy\nStream size                              : 176 MiB (12%)\nAlignment                                : Aligned on interleaves\nInterleave, duration                     : 64 ms (1.53 video frames)\nInterleave, preload duration             : 192 ms\n\nScreens : - \n &lt;a href=&quot;\nhttp://imgsparrow.co/image/8fi&quot; rel=&quot;nofollow&quot; target=&quot;_NEW&quot;&gt;\nhttp://imgsparrow.co/image/8fi&lt;/a&gt; &lt;a href=&quot;\nhttp://imgsparrow.co/image/8fV&quot; rel=&quot;nofollow&quot; target=&quot;_NEW&quot;&gt;\nhttp://imgsparrow.co/image/8fV&lt;/a&gt; &lt;a href=&quot;\nhttp://imgsparrow.co/image/8fl&quot; rel=&quot;nofollow&quot; target=&quot;_NEW&quot;&gt;\nhttp://imgsparrow.co/image/8fl&lt;/a&gt; &lt;a href=&quot;\nhttp://imgsparrow.co/image/8fs&quot; rel=&quot;nofollow&quot; target=&quot;_NEW&quot;&gt;\nhttp://imgsparrow.co/image/8fs&lt;/a&gt; &lt;a href=&quot;\nhttp://imgsparrow.co/image/8fS&quot; rel=&quot;nofollow&quot; target=&quot;_NEW&quot;&gt;\nhttp://imgsparrow.co/image/8fS&lt;/a&gt; &lt;a href=&quot;\nhttp://imgsparrow.co/image/8fR&quot; rel=&quot;nofollow&quot; target=&quot;_NEW&quot;&gt;\nhttp://imgsparrow.co/image/8fR&lt;/a&gt; &lt;a href=&quot;\nhttp://imgsparrow.co/image/8fv&quot; rel=&quot;nofollow&quot; target=&quot;_NEW&quot;&gt;\nhttp://imgsparrow.co/image/8fv&lt;/a&gt; &lt;a href=&quot;\nhttp://imgsparrow.co/image/8fx&quot; rel=&quot;nofollow&quot; target=&quot;_NEW&quot;&gt;\nhttp://imgsparrow.co/image/8fx&lt;/a&gt; &lt;a href=&quot;\nhttp://imgsparrow.co/image/8fC&quot; rel=&quot;nofollow&quot; target=&quot;_NEW&quot;&gt;\nhttp://imgsparrow.co/image/8fC&lt;/a&gt;\n &lt;a href=&quot;\nhttp://imgsparrow.co/image/8nG&quot; rel=&quot;nofollow&quot; target=&quot;_NEW&quot;&gt;\nhttp://imgsparrow.co/image/8nG&lt;/a&gt;","torrent":{"xt":"urn:btih:2dde968cd33ed6ff54fc21889c723488e8f29078","amp;dn":"Hero+%7B2015%7D+DVDScr+Rip+XviD+AC3+%7BTeam+DUS%7D+-+jnmjy","amp;tr":["udp%3A%2F%2Ftracker.openbittorrent.com%3A80","udp%3A%2F%2Fopen.demonii.com%3A1337","udp%3A%2F%2Ftracker.coppersurfer.tk%3A6969","udp%3A%2F%2Fexodus.desync.com%3A6969"],"infoHash":"2dde968cd33ed6ff54fc21889c723488e8f29078","infoHashBuffer":{"type":"Buffer","data":[45,222,150,140,211,62,214,255,84,252,33,136,156,114,52,136,232,242,144,120]},"announce":[],"urlList":[]}}